<svg xmlns="http://www.w3.org/2000/svg" xmlns:xlink="http://www.w3.org/1999/xlink" width="104.068" height="104" data-name="google analytics"><defs><linearGradient id="a" x2="1" y1=".509" y2=".509" gradientUnits="objectBoundingBox"><stop offset="0" stop-color="#fff" stop-opacity=".102"/><stop offset="1" stop-color="#fff" stop-opacity="0"/></linearGradient><linearGradient id="c" x1="-.496" x2=".932" y1=".299" y2="-.414" gradientUnits="objectBoundingBox"><stop offset="0" stop-color="#bf360c" stop-opacity=".2"/><stop offset="1" stop-color="#bf360c" stop-opacity=".02"/></linearGradient><linearGradient id="d" x1=".335" x2=".982" y1=".673" y2=".026" xlink:href="#a"/><clipPath id="b"><path d="M95.653 0H76.837a8.381 8.381 0 0 0-8.347 8.347v24.495H41.121a8.235 8.235 0 0 0-8.211 8.211v27.368H8.211A8.235 8.235 0 0 0 0 76.632v19.157A8.235 8.235 0 0 0 8.211 104h87.442A8.381 8.381 0 0 0 104 95.653V8.347A8.381 8.381 0 0 0 95.653 0Z" data-name="Path 156"/></clipPath></defs><path fill="url(#a)" d="M95.653 0H76.7a8.381 8.381 0 0 0-8.347 8.347v24.495H40.916a8.1 8.1 0 0 0-8.074 8.142v27.437h-24.7A8.118 8.118 0 0 0 0 76.563v19.158A8.325 8.325 0 0 0 8.142 104h87.579a8.381 8.381 0 0 0 8.347-8.347V8.347A8.485 8.485 0 0 0 95.653 0Z" data-name="Path 152"/><path fill="url(#a)" d="M95.653 0H76.7a8.381 8.381 0 0 0-8.347 8.347v24.495H40.916a8.1 8.1 0 0 0-8.074 8.142v27.437h-24.7A8.118 8.118 0 0 0 0 76.563v19.158A8.325 8.325 0 0 0 8.142 104h87.579a8.381 8.381 0 0 0 8.347-8.347V8.347A8.485 8.485 0 0 0 95.653 0Z" data-name="Path 153"/><g clip-path="url(#b)" data-name="Group 13"><path fill="#f57c00" d="M95.652 0H76.836a8.381 8.381 0 0 0-8.347 8.347V104h27.163a8.381 8.381 0 0 0 8.347-8.347V8.347A8.381 8.381 0 0 0 95.652 0Z" data-name="Path 154"/><path fill="none" d="M-6 27h85v88H-6z" data-name="Rectangle 3171" opacity=".2"/><path fill="#ffc107" d="M32.842 41.053v27.368H8.211A8.235 8.235 0 0 0 0 76.631v19.158A8.235 8.235 0 0 0 8.211 104h60.21V32.842H41.053a8.235 8.235 0 0 0-8.211 8.211Z" data-name="Path 155"/></g><g clip-path="url(#b)" data-name="Group 14"><path fill="url(#c)" d="M100 48v71.158h27.163a8.381 8.381 0 0 0 8.347-8.347V83.579Z" data-name="Path 157" transform="translate(-31.579 -15.158)"/></g><g data-name="Group 16"><g clip-path="url(#b)" data-name="Group 15"><path fill="#fff" d="M41.053 33.526h27.368v-.684H41.053a8.235 8.235 0 0 0-8.211 8.211v.684a8.235 8.235 0 0 1 8.211-8.211Z" data-name="Path 159" opacity=".2"/></g></g><g data-name="Group 18"><g clip-path="url(#b)" data-name="Group 17"><path fill="#fff" d="M8.211 69.105h24.631v-.684H8.211A8.235 8.235 0 0 0 0 76.632v.684a8.235 8.235 0 0 1 8.211-8.211Z" data-name="Path 161" opacity=".2"/></g></g><g data-name="Group 20"><g clip-path="url(#b)" data-name="Group 19"><path fill="#fff" d="M95.652 0H76.836a8.381 8.381 0 0 0-8.347 8.347v.684A8.381 8.381 0 0 1 76.836.684h18.816a8.381 8.381 0 0 1 8.347 8.347v-.684A8.381 8.381 0 0 0 95.652 0Z" data-name="Path 163" opacity=".2"/></g></g><g data-name="Group 22"><g clip-path="url(#b)" data-name="Group 21"><path fill="#bf360c" d="M95.653 103.315H8.211A8.235 8.235 0 0 1 0 95.105v.684A8.235 8.235 0 0 0 8.211 104h87.373a8.381 8.381 0 0 0 8.347-8.347v-.685a8.279 8.279 0 0 1-8.279 8.347Z" data-name="Path 165" opacity=".2"/></g></g><path fill="url(#d)" d="M95.653 0H76.837a8.381 8.381 0 0 0-8.347 8.347v24.495H41.121a8.235 8.235 0 0 0-8.211 8.211v27.368H8.211A8.235 8.235 0 0 0 0 76.632v19.157A8.235 8.235 0 0 0 8.211 104h87.442A8.381 8.381 0 0 0 104 95.653V8.347A8.381 8.381 0 0 0 95.653 0Z" data-name="Path 167"/></svg>